<svg width="25" height="26" viewBox="0 0 25 26" fill="none" xmlns="http://www.w3.org/2000/svg">
<g id="jam:shopping-cart">
<path id="Vector" d="M14.5834 21.3333C15.1359 21.3333 15.6658 21.1138 16.0566 20.7231C16.4473 20.3324 16.6667 19.8025 16.6667 19.25C16.6667 18.6975 16.4473 18.1676 16.0566 17.7769C15.6658 17.3862 15.1359 17.1667 14.5834 17.1667C14.0309 17.1667 13.501 17.3862 13.1103 17.7769C12.7196 18.1676 12.5001 18.6975 12.5001 19.25C12.5001 19.8025 12.7196 20.3324 13.1103 20.7231C13.501 21.1138 14.0309 21.3333 14.5834 21.3333ZM7.29174 21.3333C7.84428 21.3333 8.37418 21.1138 8.76488 20.7231C9.15558 20.3324 9.37508 19.8025 9.37508 19.25C9.37508 18.6975 9.15558 18.1676 8.76488 17.7769C8.37418 17.3862 7.84428 17.1667 7.29174 17.1667C6.73921 17.1667 6.20931 17.3862 5.81861 17.7769C5.4279 18.1676 5.20841 18.6975 5.20841 19.25C5.20841 19.8025 5.4279 20.3324 5.81861 20.7231C6.20931 21.1138 6.73921 21.3333 7.29174 21.3333ZM20.873 6.6698C21.133 6.66141 21.3796 6.55221 21.5606 6.3653C21.7416 6.17839 21.8428 5.92841 21.8428 5.66823C21.8428 5.40806 21.7416 5.15808 21.5606 4.97117C21.3796 4.78426 21.133 4.67506 20.873 4.66667H19.674C18.7345 4.66667 17.922 5.31876 17.7178 6.23542L16.4126 12.1125C16.2084 13.0292 15.3959 13.6813 14.4563 13.6813H6.63133L5.12924 7.67084H14.8636C15.1212 7.65908 15.3644 7.54848 15.5425 7.36204C15.7206 7.17559 15.82 6.92766 15.82 6.6698C15.82 6.41194 15.7206 6.164 15.5425 5.97756C15.3644 5.79111 15.1212 5.68051 14.8636 5.66875H5.12924C4.82473 5.66867 4.5242 5.738 4.25051 5.8715C3.97682 6.00499 3.73716 6.19913 3.54976 6.43916C3.36236 6.67918 3.23215 6.95877 3.16903 7.25667C3.10591 7.55457 3.11154 7.86294 3.1855 8.15834L4.68758 14.1667C4.79586 14.6002 5.046 14.9851 5.39821 15.2601C5.75042 15.5351 6.18447 15.6845 6.63133 15.6844H14.4563C15.368 15.6845 16.2524 15.3737 16.9636 14.8032C17.6748 14.2328 18.1701 13.4369 18.3678 12.5469L19.674 6.6698H20.873Z" fill="white"/>
</g>
</svg>
