<svg width="28" height="29" viewBox="0 0 28 29" fill="none" xmlns="http://www.w3.org/2000/svg">
<g id="instagram-fill 1" clip-path="url(#clip0_670_819)">
<path id="Vector" d="M14 3.04736C17.1698 3.04736 17.5653 3.05903 18.809 3.11736C20.0515 3.1757 20.8973 3.37053 21.6416 3.65986C22.4116 3.9562 23.0603 4.35753 23.709 5.00503C24.3022 5.58824 24.7613 6.29372 25.0541 7.07236C25.3423 7.81553 25.5383 8.66253 25.5966 9.90503C25.6515 11.1487 25.6666 11.5442 25.6666 14.714C25.6666 17.8839 25.655 18.2794 25.5966 19.523C25.5383 20.7655 25.3423 21.6114 25.0541 22.3557C24.7621 23.1348 24.303 23.8404 23.709 24.423C23.1256 25.0161 22.4202 25.4751 21.6416 25.7682C20.8985 26.0564 20.0515 26.2524 18.809 26.3107C17.5653 26.3655 17.1698 26.3807 14 26.3807C10.8301 26.3807 10.4346 26.369 9.19098 26.3107C7.94848 26.2524 7.10265 26.0564 6.35831 25.7682C5.57936 25.4759 4.87376 25.0168 4.29098 24.423C3.69762 23.8399 3.23857 23.1344 2.94581 22.3557C2.65648 21.6125 2.46165 20.7655 2.40331 19.523C2.34848 18.2794 2.33331 17.8839 2.33331 14.714C2.33331 11.5442 2.34498 11.1487 2.40331 9.90503C2.46165 8.66136 2.65648 7.8167 2.94581 7.07236C3.23776 6.29324 3.69692 5.58757 4.29098 5.00503C4.87393 4.41147 5.57948 3.95238 6.35831 3.65986C7.10265 3.37053 7.94731 3.1757 9.19098 3.11736C10.4346 3.06253 10.8301 3.04736 14 3.04736ZM14 8.8807C12.4529 8.8807 10.9692 9.49528 9.87519 10.5892C8.78123 11.6832 8.16665 13.1669 8.16665 14.714C8.16665 16.2611 8.78123 17.7449 9.87519 18.8388C10.9692 19.9328 12.4529 20.5474 14 20.5474C15.5471 20.5474 17.0308 19.9328 18.1248 18.8388C19.2187 17.7449 19.8333 16.2611 19.8333 14.714C19.8333 13.1669 19.2187 11.6832 18.1248 10.5892C17.0308 9.49528 15.5471 8.8807 14 8.8807ZM21.5833 8.58903C21.5833 8.20226 21.4297 7.83132 21.1562 7.55783C20.8827 7.28434 20.5118 7.1307 20.125 7.1307C19.7382 7.1307 19.3673 7.28434 19.0938 7.55783C18.8203 7.83132 18.6666 8.20226 18.6666 8.58903C18.6666 8.9758 18.8203 9.34674 19.0938 9.62023C19.3673 9.89372 19.7382 10.0474 20.125 10.0474C20.5118 10.0474 20.8827 9.89372 21.1562 9.62023C21.4297 9.34674 21.5833 8.9758 21.5833 8.58903ZM14 11.214C14.9282 11.214 15.8185 11.5828 16.4749 12.2392C17.1312 12.8955 17.5 13.7858 17.5 14.714C17.5 15.6423 17.1312 16.5325 16.4749 17.1889C15.8185 17.8453 14.9282 18.214 14 18.214C13.0717 18.214 12.1815 17.8453 11.5251 17.1889C10.8687 16.5325 10.5 15.6423 10.5 14.714C10.5 13.7858 10.8687 12.8955 11.5251 12.2392C12.1815 11.5828 13.0717 11.214 14 11.214Z" fill="#888888"/>
</g>
<defs>
<clipPath id="clip0_670_819">
<rect width="28" height="28" fill="white" transform="translate(0 0.714111)"/>
</clipPath>
</defs>
</svg>
