<svg width="28" height="29" viewBox="0 0 28 29" fill="none" xmlns="http://www.w3.org/2000/svg">
<g id="twitter-fill 1" clip-path="url(#clip0_670_816)">
<path id="Vector" d="M25.8557 7.31245C24.965 7.70642 24.0205 7.96517 23.0533 8.08012C24.0727 7.47045 24.8357 6.51096 25.2 5.38045C24.2433 5.94978 23.1945 6.34878 22.1013 6.56461C21.367 5.77896 20.3938 5.25791 19.3328 5.08246C18.2718 4.90702 17.1826 5.08702 16.2345 5.59448C15.2864 6.10193 14.5325 6.90841 14.09 7.88854C13.6475 8.86867 13.5412 9.96753 13.7877 11.0143C11.8476 10.917 9.94972 10.4129 8.21717 9.53456C6.48462 8.65622 4.95615 7.42334 3.731 5.91595C3.29734 6.66081 3.06945 7.50755 3.07067 8.36945C3.07067 10.0611 3.93167 11.5556 5.24067 12.4306C4.46601 12.4062 3.7084 12.197 3.031 11.8204V11.8811C3.03123 13.0078 3.4211 14.0997 4.13449 14.9717C4.84788 15.8437 5.8409 16.4422 6.94517 16.6656C6.22605 16.8605 5.47203 16.8892 4.74017 16.7496C5.05151 17.7194 5.65834 18.5675 6.47569 19.1752C7.29304 19.783 8.27998 20.1199 9.29833 20.1388C8.28623 20.9337 7.12737 21.5213 5.88803 21.868C4.64868 22.2147 3.35315 22.3137 2.0755 22.1594C4.30581 23.5938 6.90211 24.3553 9.55383 24.3528C18.529 24.3528 23.4372 16.9176 23.4372 10.4694C23.4372 10.2594 23.4313 10.0471 23.422 9.83945C24.3773 9.14898 25.2019 8.29364 25.8568 7.31362L25.8557 7.31245Z" fill="#888888"/>
</g>
<defs>
<clipPath id="clip0_670_816">
<rect width="28" height="28" fill="white" transform="translate(0 0.713867)"/>
</clipPath>
</defs>
</svg>
